<?xml version="1.0" encoding="UTF-8" standalone="no"?>
<!-- Created with Inkscape (http://www.inkscape.org/) -->
<svg xmlns:svg="http://www.w3.org/2000/svg" xmlns="http://www.w3.org/2000/svg" version="1.0" width="124.34792" height="124.34792" id="svg2184">
  <defs id="defs2186"/>
  <g transform="translate(-183.05913,-288.70039)" id="layer1">
    <path d="m 245.23309,288.70039 c -34.24213,0 -62.17396,27.93183 -62.17396,62.17396 0,34.24213 27.93183,62.17396 62.17396,62.17396 34.24213,0 62.17396,-27.93183 62.17396,-62.17396 0,-17.12107 -7.00305,-32.64446 -18.26628,-43.90768 l -10.24798,10.24798 c 8.605,8.605 13.93554,20.48447 13.93554,33.6597 0,26.35047 -21.24477,47.59524 -47.59524,47.59524 -26.35047,0 -47.59524,-21.24477 -47.59524,-47.59524 0,-26.35047 21.24477,-47.59524 47.59524,-47.59524 3.18936,0 6.29351,0.30662 9.30466,0.90045 l 2.65847,-14.27857 c -3.8713,-0.75941 -7.87517,-1.2006 -11.96313,-1.2006 z m 16.55114,2.27256 -3.77332,14.06418 c 1.49111,0.41236 2.94577,0.86545 4.37362,1.415 l 5.10255,-13.6354 c -1.85768,-0.71599 -3.76514,-1.30647 -5.70285,-1.84378 z m 10.03359,3.68756 -6.17452,13.16373 c 1.39092,0.65828 2.71833,1.40171 4.03059,2.18681 l 7.418,-12.52055 c -1.70918,-1.02538 -3.46435,-1.96931 -5.27407,-2.82999 z m 9.17602,5.40271 -8.31845,11.87737 c 1.22965,0.86704 2.41947,1.81006 3.55892,2.78711 l 9.39042,-11.0198 c -1.49576,-1.28371 -3.01757,-2.50533 -4.63089,-3.64468 z" id="path12353" style="opacity:0.50574712;color:#000000;fill:#000000;fill-opacity:1;fill-rule:nonzero;stroke:none;stroke-width:10.62992096;marker:none;visibility:visible;display:inline;overflow:visible;enable-background:accumulate"/>
  </g>
</svg>